<svg width="328" height="74" viewBox="0 0 328 74" fill="none" xmlns="http://www.w3.org/2000/svg">
<path d="M24.4613 32.6567H43.7487C42.0884 28.9907 38.3948 26.4401 34.105 26.4401C29.8151 26.4401 26.1216 28.9907 24.4613 32.6567ZM53.5803 40.7382C53.3651 41.1099 52.9628 41.3599 52.5022 41.3599H24.4613C26.1216 45.0258 29.8151 47.5765 34.105 47.5765C36.1637 47.5765 38.0851 46.989 39.7103 45.9728C40.0723 45.7464 40.5293 45.3932 41.0811 44.9131C41.5205 44.5309 42.1133 44.3755 42.6839 44.4929L49.9824 45.9948C50.6557 46.1333 51.089 46.7908 50.9503 47.4634C50.9198 47.6115 50.8624 47.7528 50.7811 47.8804C50.7066 47.9973 50.6377 48.1021 50.5745 48.1948C48.7673 50.8448 46.3359 53.0359 43.4916 54.5572C40.6949 56.0531 37.4991 56.9013 34.105 56.9013C23.1067 56.9013 14.1909 47.9949 14.1909 37.0083C14.1909 26.0217 23.1067 17.1153 34.105 17.1153C45.1032 17.1153 54.019 26.0217 54.019 37.0083C54.019 38.2832 53.899 39.53 53.6696 40.7382H53.5803ZM0.5 54.3699V2.67263C0.5 2.06113 0.930765 1.53391 1.5309 1.4109L8.28462 0.0265857C8.98278 -0.116515 9.66496 0.332373 9.80833 1.02921C9.82587 1.11447 9.83471 1.20128 9.83471 1.28832V54.3699C9.83471 55.0813 9.25694 55.658 8.54422 55.658H1.79049C1.07777 55.658 0.5 55.0813 0.5 54.3699Z" fill="#0E0000"/>
<path d="M229.596 52.3429C226.404 54.5158 222.548 55.786 218.394 55.786C207.396 55.786 198.48 46.8796 198.48 35.893C198.48 24.9064 207.396 16 218.394 16C222.548 16 226.404 17.2703 229.596 19.4432V18.4866C229.596 17.8 230.153 17.2433 230.84 17.2433H237.686C238.373 17.2433 238.93 17.8 238.93 18.4866V53.2994C238.93 53.9861 238.373 54.5427 237.686 54.5427H230.84C230.153 54.5427 229.596 53.9861 229.596 53.2994V52.3429ZM219.016 46.4612C224.859 46.4612 229.596 41.7297 229.596 35.893C229.596 30.0564 224.859 25.3249 219.016 25.3249C213.174 25.3249 208.437 30.0564 208.437 35.893C208.437 41.7297 213.174 46.4612 219.016 46.4612Z" fill="#0E0000"/>
<path d="M131.394 55.786C120.396 55.786 111.48 46.8796 111.48 35.893C111.48 24.9064 120.396 16 131.394 16C142.392 16 151.308 24.9064 151.308 35.893C151.308 46.8796 142.392 55.786 131.394 55.786ZM131.394 46.4612C137.237 46.4612 141.973 41.7297 141.973 35.893C141.973 30.0564 137.237 25.3249 131.394 25.3249C125.551 25.3249 120.815 30.0564 120.815 35.893C120.815 41.7297 125.551 46.4612 131.394 46.4612Z" fill="#0E0000"/>
<path d="M274.596 19.4432V18.4866C274.596 17.8 275.153 17.2433 275.84 17.2433H282.686C283.373 17.2433 283.93 17.8 283.93 18.4866V53.2994H283.928C283.762 64.3144 274.771 73.1925 263.705 73.1925C260.814 73.1925 258.065 72.5866 255.578 71.495C254.918 71.2055 254.064 70.7374 253.015 70.0907C252.271 69.6327 251.945 68.7211 252.23 67.8962L254.436 61.4961C254.66 60.8468 255.369 60.5018 256.019 60.7254C256.18 60.781 256.329 60.8693 256.455 60.9848C257.277 61.7381 257.988 62.2748 258.589 62.5948C260.114 63.4072 261.856 63.8676 263.705 63.8676C269.616 63.8676 274.427 59.164 274.591 53.2994H274.596V52.3429C271.404 54.5158 267.548 55.786 263.394 55.786C252.396 55.786 243.48 46.8796 243.48 35.893C243.48 24.9064 252.396 16 263.394 16C267.548 16 271.404 17.2703 274.596 19.4432ZM264.016 46.4612C269.859 46.4612 274.596 41.7297 274.596 35.893C274.596 30.0564 269.859 25.3249 264.016 25.3249C258.174 25.3249 253.437 30.0564 253.437 35.893C253.437 41.7297 258.174 46.4612 264.016 46.4612Z" fill="#0E0000"/>
<path d="M297.75 31.5414H317.038C315.377 27.8755 311.684 25.3249 307.394 25.3249C303.104 25.3249 299.411 27.8755 297.75 31.5414ZM326.869 39.623C326.654 39.9946 326.252 40.2446 325.791 40.2446H297.75C299.411 43.9106 303.104 46.4612 307.394 46.4612C309.453 46.4612 311.374 45.8738 312.999 44.8575C313.361 44.6312 313.818 44.278 314.37 43.7979C314.81 43.4156 315.402 43.2602 315.973 43.3776L323.271 44.8795C323.945 45.0181 324.378 45.6756 324.239 46.3481C324.209 46.4963 324.152 46.6376 324.07 46.7652C323.996 46.882 323.927 46.9868 323.864 47.0795C322.056 49.7295 319.625 51.9207 316.781 53.442C313.984 54.9378 310.788 55.786 307.394 55.786C296.396 55.786 287.48 46.8796 287.48 35.893C287.48 24.9064 296.396 16 307.394 16C318.392 16 327.308 24.9064 327.308 35.893C327.308 37.1679 327.188 38.4148 326.959 39.623H326.869Z" fill="#0E0000"/>
<path d="M100.265 18.5006H107.759C108.311 18.5006 108.837 18.4796 109.015 19.0007C109.104 19.2602 109.015 19.5007 109.015 19.5007L96.1975 54.9287C96.019 55.4499 95.5283 55.8 94.9765 55.8H87.4845C86.9327 55.8 86.442 55.4499 86.2634 54.9287L73.5153 19.5007C73.4357 19.3414 73.5153 19.0005 73.5153 19.0005C73.6939 18.4794 74.1501 18.5006 74.7019 18.5006L82.1955 18.5006C82.7473 18.5006 83.238 18.8508 83.4166 19.3719L90.6199 40.3979C90.7353 40.7344 91.1021 40.914 91.4393 40.7989C91.6281 40.7344 91.7764 40.5864 91.841 40.3979L99.0444 19.3719C99.98 17 99.7137 18.5006 100.265 18.5006Z" fill="black"/>
<path d="M73.8219 20.3654C74.0005 20.8866 82.4754 21 83.98 21L82.5366 16.8724C82.3581 16.3513 81.8673 16.0011 81.3155 16.0011H73.8219C73.2701 16.0011 72.8139 15.9799 72.6354 16.501C72.6354 16.501 72.5558 16.8419 72.6354 17.0012L73.8219 20.3654Z" fill="black"/>
<path d="M108.708 20.3654C108.53 20.8866 99.9846 21 98.48 21L99.9934 16.8717C100.172 16.3504 100.663 16.0002 101.214 16.0002H108.708C109.26 16.0002 109.716 15.9789 109.895 16.5001C109.895 16.5001 109.974 16.8411 109.895 17.0005L108.708 20.3654Z" fill="black"/>
<path d="M156.28 18.5434V37.8147C156.28 47.7713 164.36 55.8428 174.327 55.8428C177.744 55.8428 180.938 54.8945 183.662 53.247L184.78 52.3C184.78 52.9867 189.593 45.8 190.28 45.8L192.28 40.8C192.967 40.8 192.997 35.4867 192.997 34.8V18.5434C192.997 17.8567 192.439 17.3 191.752 17.3H184.907C184.219 17.3 183.662 17.8567 183.662 18.5434V37.1931H183.64C183.654 37.3984 183.662 37.6057 183.662 37.8147C183.662 42.6214 179.761 46.5179 174.949 46.5179C170.138 46.5179 166.237 42.6214 166.237 37.8147C166.237 37.6057 166.223 37.385 166.237 37.1797V18.5434C166.237 17.8567 165.68 17.3 164.992 17.3L157.525 17.3C156.837 17.3 156.28 17.8567 156.28 18.5434Z" fill="#0E0000"/>
<mask id="mask0" mask-type="alpha" maskUnits="userSpaceOnUse" x="125" y="17" width="69" height="57">
<path d="M183.685 52.3996V18.5434C183.685 17.8567 184.242 17.3 184.93 17.3H191.775C192.463 17.3 193.02 17.8567 193.02 18.5434V53.3562H193.017C192.851 64.3711 183.861 73.2492 172.795 73.2492C169.904 73.2492 167.154 72.6433 164.667 71.5517C164.008 71.2623 163.153 70.7942 162.104 70.1475C161.361 69.6894 161.035 68.7778 161.319 67.953L163.526 61.5528C163.75 60.9036 164.458 60.5586 165.108 60.7822C165.27 60.8378 165.418 60.9261 165.544 61.0415C166.366 61.7949 167.078 62.3316 167.678 62.6515C169.204 63.4639 170.945 63.9244 172.795 63.9244C178.705 63.9244 183.52 59.2208 183.685 53.3562V52.3996C183.685 55.2041 182.592 53.9556 180.807 51.9015C180.556 51.8064 180.291 51.701 180.014 51.5858C167.917 50.0547 131.152 49.5554 127.57 49.5554C121.033 49.5554 131.097 40.8688 140.338 36.1274C132.674 32.0859 125.321 25.3 131.48 25.3C132.93 25.3 139.341 28.8675 147.208 33.4192C150.362 32.6903 152.569 33.2294 152.569 35.9498C152.569 36.1496 152.559 36.3387 152.538 36.5173C152.789 36.6637 153.041 36.8105 153.293 36.9576C158.047 34.7169 162.526 33.4939 162.526 35.9498C162.526 41.7864 167.263 46.5179 173.106 46.5179C174.757 46.5179 176.319 47.4534 177.711 48.6641C181.316 49.6478 183.685 50.8763 183.685 52.3996Z" fill="#0E0000"/>
</mask>
<g mask="url(#mask0)">
<path d="M183.68 53.3V50.3L182.68 49.3V17.8L183.68 16.3L192.18 14.8L194.68 17.3L193.68 60.3L182.68 76.8L159.68 71.3L160.18 60.3L182.68 55.8L183.28 54.8L183.68 53.3Z" fill="#0E0000"/>
</g>
<path d="M183.653 35.893C183.668 36.0984 193.01 35.684 193.01 35.893V17.2433C193.01 16.5566 192.453 16 191.765 16H184.92C184.233 16 183.675 16.5566 183.675 17.2433V35.893H183.653Z" fill="#0E0000"/>
<path d="M156.283 17.2433V36.5146C156.283 36.3056 166.225 36.2053 166.24 36L166.24 35.893V17.2433C166.24 16.5566 165.683 16 164.995 16H157.528C156.84 16 156.283 16.5566 156.283 17.2433Z" fill="#0E0000"/>
</svg>
